<svg version="1.1" xmlns="http://www.w3.org/2000/svg" viewBox="0 0 1469 1472" xml:space="preserve">
  <style>
    .cls-bg { fill: #2563eb; }
    .cls-fg { fill: #ffffff; }
    @media (prefers-color-scheme: dark) {
      .cls-bg { fill: #60a5fa; }
      .cls-fg { fill: #0f172a; }
    }
  </style>
  <!-- Main Background Path -->
  <path class="cls-bg" d="M996,1473 C664,1473 332.5,1473 1,1473 C1,982.3 1,491.7 1,1 C490.7,1 980.3,1 1470,1 C1470,491.7 1470,982.3 1470,1473 C1312.2,1473 1154.3,1473 996,1473 M1109,799.5 C1109,690.7 1109,582 1109,473.4 C1102.5,469.7 1096.3,466.2 1090.2,462.6 C1069.1,450.3 1048.1,437.8 1027,425.5 C1011.4,416.5 995.7,407.7 980.2,398.6 C960.7,387.3 941.4,375.8 921.9,364.5 C908.7,356.8 895.4,349.3 882.2,341.6 C867.4,333 852.7,324 837.8,315.4 C820.6,305.3 803.3,295.5 786,285.5 C771.1,276.9 756,268.6 741.4,259.6 C736,256.3 731.8,257.6 727.2,260.3 C703.8,274.1 680.4,287.9 656.9,301.5 C643.7,309.2 630.4,316.7 617.2,324.4 C602.4,333 587.7,342 572.8,350.6 C556.7,360 540.4,369 524.2,378.4 C504.9,389.5 485.7,401 466.4,412.2 C450.7,421.3 434.9,430.3 419.2,439.4 C401.4,449.7 383.7,460.3 365.9,470.5 C362.4,472.5 360.9,474.5 360.9,478.7 C361,614 361,749.3 361,884.6 C361,885.8 360.8,887 361.1,888.1 C361.3,889.1 361.8,890.4 362.6,890.8 C370.1,895.3 377.6,899.6 385.1,904 C399,912.1 412.9,920.2 426.8,928.3 C439.8,935.9 452.9,943.4 466,951 C479.9,959.1 493.8,967.1 507.7,975.2 C525.5,985.5 543.3,995.7 561.1,1006 C574.2,1013.6 587.3,1021.2 600.3,1028.8 C620.5,1040.5 640.6,1052.3 660.8,1064 C673.1,1071.2 685.5,1078.3 697.9,1085.4 C709.1,1091.9 720.1,1098.4 731.4,1104.6 C733.4,1105.7 736.5,1106.6 738.3,1105.8 C743.3,1103.6 747.9,1100.5 752.6,1097.8 C774.5,1084.9 796.4,1072 818.4,1059.2 C833.8,1050.3 849.4,1041.6 864.8,1032.6 C881.2,1023.1 897.4,1013.2 913.8,1003.7 C931.7,993.3 949.8,983.1 967.7,972.7 C991.8,958.8 1015.7,944.7 1039.8,930.7 C1061,918.3 1082.3,906 1103.7,893.8 C1107.6,891.5 1109.2,888.8 1109.1,884 C1108.9,856.2 1109,828.3 1109,799.5" />
  <!-- ForeGround Paths (Symbol) -->
  <g class="cls-fg">
    <path d="M1109,800 C1109,828.3 1108.9,856.2 1109.1,884 C1109.2,888.8 1107.6,891.5 1103.7,893.8 C1082.3,906 1061,918.3 1039.8,930.7 C1015.7,944.7 991.8,958.8 967.7,972.7 C949.8,983.1 931.7,993.3 913.8,1003.7 C897.4,1013.2 881.2,1023.1 864.8,1032.6 C849.4,1041.6 833.8,1050.3 818.4,1059.2 C796.4,1072 774.5,1084.9 752.6,1097.8 C747.9,1100.5 743.3,1103.6 738.3,1105.8 C736.5,1106.6 733.4,1105.7 731.4,1104.6 C720.1,1098.4 709.1,1091.9 697.9,1085.4 C685.5,1078.3 673.1,1071.2 660.8,1064 C640.6,1052.3 620.5,1040.5 600.3,1028.8 C587.3,1021.2 574.2,1013.6 561.1,1006 C543.3,995.7 525.5,985.5 507.7,975.2 C493.8,967.1 479.9,959.1 466,951 C452.9,943.4 439.8,935.9 426.8,928.3 C412.9,920.2 399,912.1 385.1,904 C377.6,899.6 370.1,895.3 362.6,890.8 C361.8,890.4 361.3,889.1 361.1,888.1 C360.8,887 361,885.8 361,884.6 C361,749.3 361,614 360.9,478.7 C360.9,474.5 362.4,472.5 365.9,470.5 C383.7,460.3 401.4,449.7 419.2,439.4 C434.9,430.3 450.7,421.3 466.4,412.2 C485.7,401 504.9,389.5 524.2,378.4 C540.4,369 556.7,360 572.8,350.6 C587.7,342 602.4,333 617.2,324.4 C630.4,316.7 643.7,309.2 656.9,301.5 C680.4,287.9 703.8,274.1 727.2,260.3 C731.8,257.6 736,256.3 741.4,259.6 C756,268.6 771.1,276.9 786,285.5 C803.3,295.5 820.6,305.3 837.8,315.4 C852.7,324 867.4,333 882.2,341.6 C895.4,349.3 908.7,356.8 921.9,364.5 C941.4,375.8 960.7,387.3 980.2,398.6 C995.7,407.7 1011.4,416.5 1027,425.5 C1048.1,437.8 1069.1,450.3 1090.2,462.6 C1096.3,466.2 1102.5,469.7 1109,473.4 C1109,582 1109,690.7 1109,800" />
    <path d="M520,674 C520.7,662 520.4,650.4 522.3,639.1 C523.7,630.4 526.6,621.4 531.1,613.9 C541,597.2 558.1,591.7 576.2,590.2 C590,589 604,589.2 617.9,589 C634.9,588.9 651.9,589.1 668.9,588.9 C670.6,588.9 672.9,587.8 673.9,586.4 C683.7,573.8 693.4,560.9 703,548.1 C707.8,541.6 712.4,535.1 717.8,527.7 C713.2,527.4 709.8,527 706.4,527 C662,527.3 617.6,527.7 573.2,528 C561.1,528.1 549.3,530.4 537.7,533.7 C517,539.7 499.7,550.8 485.3,567 C472.8,581.1 464.9,597.3 459.9,615.3 C455.7,629.8 456.6,644.7 456.4,659.3 C456,687.6 454.2,716 457.9,744.3 C460,759.8 464.2,774.8 472.6,787.8 C487.5,810.8 508,827.6 534.6,835.9 C545.9,839.5 557.4,842 569.4,842 C577.5,842 577.9,842.7 578,850.7 C578.1,853.1 578.7,855.5 579,857.9 C580.9,876.4 586.3,893.7 594.6,910.3 C603.9,929.2 619,941.4 637.9,948.8 C660.8,957.8 684.5,956.7 708.2,951.4 C725.7,947.4 741.9,940 757.3,930.9 C764.6,926.5 771.3,921 778.3,916 C778,915.5 777.7,914.9 777.4,914.4 C776.3,914.7 775.2,914.8 774.3,915.3 C769.3,917.5 764.5,920.1 759.4,922.1 C740.7,929.6 721.4,933.5 701.2,930 C681.6,926.5 667.5,915.1 658.2,898.1 C647.9,879.4 647,858.5 645.8,837.5 C723.4,818.5 786.2,776.9 835.7,714.9 C847,720.1 858.2,725.3 869.4,730.4 C869.7,729.5 870,729.2 870,728.9 C869.3,716.1 868.7,703.3 868,690.4 C867.7,686.3 867.4,682.2 867,678.2 C865.7,664.8 864.3,651.5 863,638.2 C862,628.1 861.1,618.1 860.1,607.2 C821.1,628.4 782.9,649 743.7,670.3 C755.3,676.2 765.6,681.3 775.9,686.5 C774.8,688.4 773.9,690.2 772.7,691.7 C761.4,707.5 747.7,721 732.5,733 C712.4,749 690.1,760.8 665.8,769.1 C647.4,775.4 628.6,779 609.3,779.8 C593.7,780.5 578,780.8 562.6,777.1 C542.2,772.1 528.9,760.6 523.6,739.5 C520.1,725.7 521.9,711.8 520.2,698 C519.2,690.3 520,682.3 520,674" />
  </g>
</svg>
