<svg version="1.1" id="Layer_1" xmlns="http://www.w3.org/2000/svg" xmlns:xlink="http://www.w3.org/1999/xlink" x="0px" y="0px"
	 width="100%" viewBox="0 0 1469 1472" enable-background="new 0 0 1469 1472" xml:space="preserve">
<path fill="#000000" opacity="1.000000" stroke="none" 
	d="
M996.000000,1473.000000 
	C664.000061,1473.000000 332.500122,1473.000000 1.000134,1473.000000 
	C1.000089,982.333496 1.000089,491.666962 1.000044,1.000331 
	C490.666412,1.000221 980.332825,1.000221 1469.999512,1.000110 
	C1469.999634,491.666351 1469.999634,982.332703 1469.999756,1472.999512 
	C1312.166626,1473.000000 1154.333374,1473.000000 996.000000,1473.000000 
M1109.000000,799.500000 
	C1109.000000,690.743591 1109.000000,581.987183 1109.000000,473.433624 
	C1102.460083,469.683472 1096.290527,466.212585 1090.185059,462.632385 
	C1069.108032,450.273224 1048.089355,437.814117 1026.978149,425.513763 
	C1011.426453,416.452606 995.721863,407.654053 980.163208,398.604523 
	C960.710083,387.289734 941.364990,375.789368 921.919312,364.461700 
	C908.728638,356.777832 895.397583,349.334564 882.215820,341.635681 
	C867.360901,332.959534 852.650696,324.035461 837.790344,315.368744 
	C820.576111,305.329254 803.266296,295.453766 785.999268,285.504761 
	C771.103394,276.921936 756.041321,268.608978 741.401794,259.609009 
	C735.986023,256.279541 731.827087,257.624756 727.227722,260.323212 
	C703.796265,274.070435 680.386658,287.855255 656.918213,301.539062 
	C643.730713,309.228333 630.396484,316.666107 617.214722,324.365051 
	C602.359741,333.041168 587.664001,341.990540 572.784973,350.624512 
	C556.663757,359.979248 540.360107,369.019440 524.228760,378.356995 
	C504.895020,389.548309 485.685394,400.953857 466.372925,412.182190 
	C450.669861,421.311981 434.862915,430.263092 419.159332,439.392059 
	C401.371826,449.732452 383.698761,460.270905 365.852600,470.508209 
	C362.428223,472.472595 360.884491,474.459076 360.888702,478.679779 
	C361.023956,613.988770 360.999969,749.297913 361.000092,884.607056 
	C361.000092,885.773499 360.797424,886.989197 361.063171,888.091858 
	C361.304749,889.094238 361.820740,890.365967 362.620026,890.846252 
	C370.058960,895.316162 377.585022,899.641052 385.086182,904.007385 
	C398.977722,912.093567 412.864319,920.188354 426.762787,928.262634 
	C439.827057,935.852234 452.904449,943.419250 465.974976,950.998108 
	C479.878174,959.059753 493.770477,967.140198 507.685181,975.181946 
	C525.494690,985.474670 543.333496,995.716858 561.137573,1006.019043 
	C574.216675,1013.587280 587.258789,1021.219360 600.319946,1028.818604 
	C620.467651,1040.540894 640.609070,1052.273804 660.769653,1063.973877 
	C673.137146,1071.151245 685.537415,1078.272095 697.919189,1085.424805 
	C709.055481,1091.858032 720.128906,1098.404175 731.374451,1104.640015 
	C733.353027,1105.737183 736.480286,1106.561401 738.319702,1105.764282 
	C743.302917,1103.604736 747.896790,1100.536133 752.612976,1097.773438 
	C774.532837,1084.933350 796.405945,1072.012939 818.367004,1059.244019 
	C833.784302,1050.279785 849.370789,1041.606323 864.781860,1032.631714 
	C881.171814,1023.087158 897.390808,1013.248962 913.782104,1003.706848 
	C931.699463,993.276489 949.764893,983.100891 967.700073,972.700928 
	C991.754456,958.752625 1015.726746,944.662598 1039.769897,930.694824 
	C1061.031738,918.342834 1082.318604,906.033569 1103.652832,893.807190 
	C1107.595215,891.547791 1109.176392,888.767334 1109.130615,883.983826 
	C1108.863892,856.157959 1109.000000,828.328369 1109.000000,799.500000 
M561.000000,1182.500000 
	C561.000000,1193.929077 561.000000,1205.358276 561.000000,1216.711914 
	C567.646301,1216.711914 573.718079,1216.711914 580.742615,1216.711914 
	C580.742615,1203.330322 580.742615,1190.232178 580.742615,1177.134033 
	C585.181519,1180.682739 588.462036,1184.399170 591.666138,1188.180420 
	C596.945923,1194.410889 602.069641,1200.777344 607.471313,1206.899292 
	C610.326965,1210.135864 613.142517,1214.193726 616.857361,1215.682983 
	C621.303101,1217.465332 626.689758,1216.900879 631.742737,1217.359619 
	C631.742737,1191.411865 631.742737,1166.344482 631.742737,1141.259766 
	C625.410950,1141.259766 619.339966,1141.259766 613.165283,1141.259766 
	C612.375671,1154.552124 614.307739,1167.798218 611.025391,1181.953613 
	C609.338928,1179.541748 608.593750,1178.306641 607.686096,1177.205200 
	C601.253418,1169.399048 594.548523,1161.803833 588.395447,1153.784546 
	C581.433289,1144.710815 573.820984,1137.776855 561.000000,1141.773804 
	C561.000000,1154.884155 561.000000,1168.192017 561.000000,1182.500000 
M857.076965,1183.383789 
	C863.985229,1171.236328 862.301208,1158.088379 852.324219,1148.924438 
	C847.588318,1144.574341 842.001282,1141.885254 835.263672,1141.944702 
	C821.592346,1142.065186 807.919189,1141.980713 794.273804,1141.980713 
	C794.273804,1166.621826 794.273804,1191.689209 794.273804,1217.000000 
	C799.685364,1217.000000 804.829285,1216.879272 809.963928,1217.045898 
	C812.996216,1217.144165 814.137695,1216.037354 814.047119,1212.983154 
	C813.881287,1207.390503 813.999878,1201.789429 813.999878,1196.000000 
	C817.059998,1196.000000 819.566162,1196.230347 822.013611,1195.949707 
	C826.430542,1195.443115 829.458801,1196.756104 831.589600,1200.945190 
	C833.254456,1204.218140 835.753662,1207.087646 838.029175,1210.022461 
	C839.888306,1212.419922 841.812012,1216.430420 843.973877,1216.615845 
	C850.260437,1217.155396 856.913086,1218.324219 863.777710,1215.017334 
	C858.249146,1207.320435 853.023438,1200.045166 847.771057,1192.732910 
	C850.863098,1189.648560 853.718811,1186.799927 857.076965,1183.383789 
M979.953735,1180.389893 
	C979.636108,1178.818481 979.059448,1177.249878 979.041443,1175.675049 
	C978.879761,1161.477051 970.515076,1152.724121 959.240967,1146.072754 
	C952.691162,1142.208618 945.204407,1141.294678 937.795288,1141.083618 
	C926.570679,1140.763916 915.330261,1141.000000 904.303833,1141.000000 
	C904.303833,1166.728638 904.303833,1191.773438 904.303833,1216.000000 
	C917.657349,1216.000000 930.703491,1216.100708 943.747131,1215.966675 
	C953.363647,1215.867798 961.646179,1211.939697 968.671936,1205.701050 
	C975.933228,1199.253296 979.208313,1190.763428 979.953735,1180.389893 
M456.419861,1157.000000 
	C458.884125,1157.000000 461.348389,1157.000000 463.835297,1157.000000 
	C463.408661,1151.400879 463.016479,1146.254517 462.641266,1141.330688 
	C442.934082,1141.330688 423.530212,1141.330688 404.331024,1141.330688 
	C404.331024,1166.732666 404.331024,1191.802979 404.331024,1216.668457 
	C424.734863,1216.668457 444.806519,1216.668457 464.664368,1216.668457 
	C464.664368,1211.256592 464.664368,1206.181152 464.664368,1200.724609 
	C450.921692,1200.724609 437.512329,1200.724609 424.341187,1200.724609 
	C424.341187,1195.579346 424.341187,1190.837769 424.341187,1185.713745 
	C436.090271,1185.713745 447.500610,1185.713745 458.653198,1185.713745 
	C458.653198,1180.566895 458.653198,1175.824341 458.653198,1171.310425 
	C446.948975,1170.783203 435.599426,1170.271973 424.265747,1169.761475 
	C424.265747,1165.397461 424.265747,1161.324707 424.265747,1157.000000 
	C434.833710,1157.000000 445.138000,1157.000000 456.419861,1157.000000 
M543.753479,1216.959106 
	C547.186523,1216.636963 550.619568,1216.314941 555.166260,1215.888306 
	C543.345764,1190.230957 532.026855,1165.662476 520.664673,1141.000000 
	C515.369080,1141.000000 510.204712,1141.197998 505.065552,1140.923584 
	C502.127777,1140.766724 500.909760,1141.853271 499.742798,1144.468384 
	C493.864319,1157.641113 487.646820,1170.662231 481.687714,1183.799683 
	C476.933502,1194.280762 472.379486,1204.852783 467.472595,1215.983276 
	C474.374542,1215.983276 480.640411,1216.086914 486.894348,1215.861084 
	C487.740570,1215.830444 488.795929,1214.270996 489.293304,1213.204468 
	C491.164520,1209.192139 492.844879,1205.090820 494.606598,1201.000000 
	C504.101257,1201.000000 513.423767,1201.181030 522.732910,1200.908813 
	C526.335815,1200.803345 528.069336,1202.015381 529.047363,1205.388672 
	C530.981628,1212.060059 533.607544,1218.146484 542.542725,1216.246826 
	C542.666504,1216.220337 542.832520,1216.392334 543.753479,1216.959106 
M721.432556,1143.943970 
	C719.985291,1142.962646 718.608215,1141.290405 717.076904,1141.134766 
	C713.120850,1140.732544 709.076660,1141.246948 705.105896,1140.924561 
	C701.715271,1140.649048 700.234924,1142.085327 698.932190,1145.032104 
	C691.026062,1162.916382 682.908813,1180.707153 674.892212,1198.542725 
	C672.407104,1204.071655 670.015991,1209.642944 666.861877,1216.837036 
	C674.491211,1216.482178 680.868042,1216.224976 687.234436,1215.808472 
	C687.700378,1215.778076 688.186707,1214.639526 688.500732,1213.942749 
	C690.412476,1209.700928 692.277039,1205.437988 694.237610,1201.000122 
	C704.262878,1201.000122 714.245667,1200.900635 724.221680,1201.116577 
	C725.581421,1201.145996 727.489441,1202.443970 728.140686,1203.682129 
	C730.205505,1207.607910 731.795166,1211.783813 733.695435,1216.154663 
	C740.366821,1214.642090 747.339783,1219.368896 754.444702,1215.061035 
	C750.330017,1206.150024 746.299011,1197.434448 742.280151,1188.713257 
	C735.501221,1174.002808 728.730042,1159.288940 721.432556,1143.943970 
M1036.978760,1195.220093 
	C1031.640381,1200.977051 1024.768433,1202.616089 1017.569885,1199.848999 
	C1012.125183,1197.755981 1009.000061,1192.248779 1009.000061,1184.746460 
	C1009.000000,1170.293335 1009.000000,1155.840210 1009.000000,1141.205444 
	C1002.192078,1141.205444 995.787109,1141.205444 989.000916,1141.205444 
	C989.000916,1157.196899 988.423035,1173.015991 989.243896,1188.762085 
	C989.656006,1196.666626 992.991089,1203.926636 999.766113,1209.523926 
	C1010.197388,1218.141846 1022.285828,1217.812988 1034.237671,1216.554443 
	C1039.388672,1216.011841 1044.562622,1212.455322 1049.024170,1209.281128 
	C1058.016357,1202.883667 1059.460449,1192.703003 1059.857422,1182.775391 
	C1060.410034,1168.956055 1059.981689,1155.097656 1059.973267,1141.266602 
	C1052.411377,1141.266602 1046.333374,1141.266602 1040.000000,1141.266602 
	C1040.000000,1155.337158 1040.207520,1169.147705 1039.866455,1182.944580 
	C1039.771240,1186.793945 1038.055786,1190.603149 1036.978760,1195.220093 
M311.427216,1159.916138 
	C314.059326,1161.659668 316.691437,1163.403198 319.416626,1165.208496 
	C323.588837,1161.389771 327.532837,1157.779907 331.453033,1154.191772 
	C323.586639,1144.989014 313.747864,1141.152466 302.882965,1140.083008 
	C283.980896,1138.222290 260.336487,1149.903198 257.596527,1173.054077 
	C255.743591,1188.710449 261.538544,1201.883423 273.051758,1209.914185 
	C285.336243,1218.483032 299.125092,1218.643433 313.199524,1215.351685 
	C320.604370,1213.619751 326.325623,1209.444092 331.147491,1203.239380 
	C326.917755,1199.548828 322.991119,1196.122681 318.975708,1192.619141 
	C317.227142,1193.942261 315.838562,1195.046143 314.396698,1196.075317 
	C304.697662,1202.998413 292.594635,1203.226685 283.769745,1194.914062 
	C276.527283,1188.091797 274.035187,1178.503174 279.980194,1167.367798 
	C285.320190,1157.365601 298.461456,1154.086548 311.427216,1159.916138 
M1112.430786,1140.000000 
	C1104.012695,1139.817749 1095.713257,1141.281982 1088.821167,1145.933960 
	C1075.914551,1154.645630 1068.019165,1166.241943 1069.877319,1182.987671 
	C1070.954590,1192.696655 1074.859375,1200.720581 1081.787842,1207.175659 
	C1096.026489,1220.441406 1123.638062,1220.536743 1138.286255,1209.310425 
	C1144.133301,1204.829346 1144.464478,1203.548340 1139.130615,1198.625122 
	C1132.577881,1192.576904 1132.739868,1192.851562 1124.992310,1197.423706 
	C1111.302979,1205.501831 1095.312622,1200.164551 1090.293701,1185.686035 
	C1086.361572,1174.342285 1093.806763,1160.183105 1104.864380,1157.800903 
	C1113.483398,1155.944092 1120.758057,1157.543945 1127.844849,1162.267700 
	C1129.227173,1163.188965 1131.789795,1163.977539 1132.930054,1163.315430 
	C1136.255249,1161.384399 1139.236206,1158.798828 1142.109741,1156.201538 
	C1142.707520,1155.661255 1142.781738,1153.415161 1142.220947,1152.888916 
	C1134.113525,1145.282104 1124.835571,1140.141357 1112.430786,1140.000000 
M1189.000000,1171.504395 
	C1189.000000,1166.739502 1189.000000,1161.974609 1189.000000,1156.272095 
	C1197.668701,1156.272095 1205.772339,1156.272095 1213.661133,1156.272095 
	C1213.661133,1150.574951 1213.661133,1145.838989 1213.661133,1141.319824 
	C1191.263184,1141.319824 1169.204834,1141.319824 1147.319336,1141.319824 
	C1147.319336,1146.715820 1147.319336,1151.785156 1147.319336,1157.238281 
	C1155.042236,1157.238281 1162.450439,1157.238281 1170.219482,1157.238281 
	C1170.219482,1177.358154 1170.219482,1197.086426 1170.219482,1216.701660 
	C1176.673950,1216.701660 1182.742432,1216.701660 1189.000000,1216.701660 
	C1189.000000,1201.770508 1189.000000,1187.136963 1189.000000,1171.504395 
M377.499451,1217.000000 
	C383.593903,1217.000000 389.688354,1217.000000 395.718475,1217.000000 
	C395.718475,1211.361572 395.718475,1206.292114 395.718475,1200.841309 
	C383.372620,1200.841309 371.303802,1200.841309 358.864563,1200.841309 
	C358.864563,1180.726807 358.864563,1160.998413 358.864563,1141.138184 
	C352.532715,1141.138184 346.580719,1141.138184 340.643372,1141.138184 
	C338.885284,1146.144531 338.029297,1208.704834 339.632111,1217.000000 
	C351.894928,1217.000000 364.197266,1217.000000 377.499451,1217.000000 
M777.246765,1216.996826 
	C777.821655,1216.583862 778.824219,1216.238281 778.901550,1215.746948 
	C779.382690,1212.689453 779.940247,1209.600464 779.953491,1206.519653 
	C780.041748,1185.884521 780.048889,1165.248535 779.874329,1144.614502 
	C779.864014,1143.402466 778.106812,1141.229736 777.059570,1141.164795 
	C771.480591,1140.818604 765.868774,1141.001709 760.219299,1141.001709 
	C760.219299,1166.556152 760.219299,1191.601196 760.219299,1216.999878 
	C765.718140,1216.999878 771.004761,1216.999878 777.246765,1216.996826 
z"/>
<path fill="#FFFFFF" opacity="1.000000" stroke="none" 
	d="
M1109.000000,800.000000 
	C1109.000000,828.328369 1108.863892,856.157959 1109.130615,883.983826 
	C1109.176392,888.767334 1107.595215,891.547791 1103.652832,893.807190 
	C1082.318604,906.033569 1061.031738,918.342834 1039.769897,930.694824 
	C1015.726746,944.662598 991.754456,958.752625 967.700073,972.700928 
	C949.764893,983.100891 931.699463,993.276489 913.782104,1003.706848 
	C897.390808,1013.248962 881.171814,1023.087158 864.781860,1032.631714 
	C849.370789,1041.606323 833.784302,1050.279785 818.367004,1059.244019 
	C796.405945,1072.012939 774.532837,1084.933350 752.612976,1097.773438 
	C747.896790,1100.536133 743.302917,1103.604736 738.319702,1105.764282 
	C736.480286,1106.561401 733.353027,1105.737183 731.374451,1104.640015 
	C720.128906,1098.404175 709.055481,1091.858032 697.919189,1085.424805 
	C685.537415,1078.272095 673.137146,1071.151245 660.769653,1063.973877 
	C640.609070,1052.273804 620.467651,1040.540894 600.319946,1028.818604 
	C587.258789,1021.219360 574.216675,1013.587280 561.137573,1006.019043 
	C543.333496,995.716858 525.494690,985.474670 507.685181,975.181946 
	C493.770477,967.140198 479.878174,959.059753 465.974976,950.998108 
	C452.904449,943.419250 439.827057,935.852234 426.762787,928.262634 
	C412.864319,920.188354 398.977722,912.093567 385.086182,904.007385 
	C377.585022,899.641052 370.058960,895.316162 362.620026,890.846252 
	C361.820740,890.365967 361.304749,889.094238 361.063171,888.091858 
	C360.797424,886.989197 361.000092,885.773499 361.000092,884.607056 
	C360.999969,749.297913 361.023956,613.988770 360.888702,478.679779 
	C360.884491,474.459076 362.428223,472.472595 365.852600,470.508209 
	C383.698761,460.270905 401.371826,449.732452 419.159332,439.392059 
	C434.862915,430.263092 450.669861,421.311981 466.372925,412.182190 
	C485.685394,400.953857 504.895020,389.548309 524.228760,378.356995 
	C540.360107,369.019440 556.663757,359.979248 572.784973,350.624512 
	C587.664001,341.990540 602.359741,333.041168 617.214722,324.365051 
	C630.396484,316.666107 643.730713,309.228333 656.918213,301.539062 
	C680.386658,287.855255 703.796265,274.070435 727.227722,260.323212 
	C731.827087,257.624756 735.986023,256.279541 741.401794,259.609009 
	C756.041321,268.608978 771.103394,276.921936 785.999268,285.504761 
	C803.266296,295.453766 820.576111,305.329254 837.790344,315.368744 
	C852.650696,324.035461 867.360901,332.959534 882.215820,341.635681 
	C895.397583,349.334564 908.728638,356.777832 921.919312,364.461700 
	C941.364990,375.789368 960.710083,387.289734 980.163208,398.604523 
	C995.721863,407.654053 1011.426453,416.452606 1026.978149,425.513763 
	C1048.089355,437.814117 1069.108032,450.273224 1090.185059,462.632385 
	C1096.290527,466.212585 1102.460083,469.683472 1109.000000,473.433624 
	C1109.000000,581.987183 1109.000000,690.743591 1109.000000,800.000000 
M758.965942,1021.541382 
	C759.200500,1021.303528 759.396484,1020.999390 759.675110,1020.837158 
	C784.261353,1006.527649 808.840149,992.205078 833.450439,977.936890 
	C857.090515,964.231140 880.786072,950.621094 904.415894,936.897705 
	C926.101685,924.303284 947.706360,911.569153 969.394043,898.977966 
	C993.027710,885.257141 1016.725769,871.647217 1040.365479,857.936707 
	C1042.957642,856.433228 1044.118896,854.348572 1044.112549,850.924683 
	C1043.966797,771.761414 1043.947632,692.597778 1044.045166,613.434387 
	C1044.064209,598.015442 1044.820190,582.598572 1044.960205,567.178223 
	C1045.128174,548.680481 1045.033447,530.179871 1044.922852,511.681274 
	C1044.915527,510.468842 1044.121704,508.786499 1043.150024,508.139923 
	C1039.678101,505.829926 1035.982788,503.852753 1032.352051,501.784912 
	C1013.079163,490.808167 993.724487,479.972717 974.542603,468.839294 
	C950.757996,455.034271 927.139343,440.943573 903.401428,427.057526 
	C888.560913,418.376221 873.616028,409.873474 858.748596,401.237885 
	C843.178772,392.194275 827.647705,383.083862 812.095703,374.009521 
	C797.241028,365.342041 782.384521,356.677734 767.522522,348.022827 
	C757.794617,342.357727 748.102966,336.626770 738.269653,331.150513 
	C736.821350,330.343933 734.241394,330.017029 732.921509,330.765991 
	C714.609314,341.157257 696.402344,351.735321 678.216919,362.348602 
	C658.777466,373.693817 639.410828,385.163849 619.968750,396.504517 
	C606.639526,404.279510 593.194275,411.855804 579.875610,419.648743 
	C563.501526,429.229492 547.252319,439.023956 530.861755,448.576111 
	C515.308228,457.640442 499.604645,466.447021 484.035004,475.484100 
	C466.237885,485.814056 448.562897,496.355255 430.718140,506.601440 
	C427.471832,508.465424 425.879486,510.236389 425.884766,514.344727 
	C426.029022,626.340088 426.000000,738.335632 426.000000,850.331177 
	C426.000000,852.134033 426.000000,853.936829 426.000000,855.428894 
	C436.738678,861.467102 447.176697,867.179626 457.463806,873.151978 
	C481.380096,887.037170 505.175079,901.131592 529.110535,914.983398 
	C551.781067,928.103210 574.615173,940.940308 597.290100,954.052551 
	C619.002014,966.607971 640.605408,979.351074 662.249512,992.023438 
	C684.314026,1004.941895 706.383118,1017.852478 728.419922,1030.817993 
	C733.498291,1033.805908 737.977844,1034.890869 743.311707,1030.530518 
	C747.713135,1026.932373 753.286682,1024.768066 758.965942,1021.541382 
z"/>
<path fill="#FFFFFF" opacity="1.000000" stroke="none" 
	d="
M561.000000,1182.000000 
	C561.000000,1168.192017 561.000000,1154.884155 561.000000,1141.773804 
	C573.820984,1137.776855 581.433289,1144.710815 588.395447,1153.784546 
	C594.548523,1161.803833 601.253418,1169.399048 607.686096,1177.205200 
	C608.593750,1178.306641 609.338928,1179.541748 611.025391,1181.953613 
	C614.307739,1167.798218 612.375671,1154.552124 613.165283,1141.259766 
	C619.339966,1141.259766 625.410950,1141.259766 631.742737,1141.259766 
	C631.742737,1166.344482 631.742737,1191.411865 631.742737,1217.359619 
	C626.689758,1216.900879 621.303101,1217.465332 616.857361,1215.682983 
	C613.142517,1214.193726 610.326965,1210.135864 607.471313,1206.899292 
	C602.069641,1200.777344 596.945923,1194.410889 591.666138,1188.180420 
	C588.462036,1184.399170 585.181519,1180.682739 580.742615,1177.134033 
	C580.742615,1190.232178 580.742615,1203.330322 580.742615,1216.711914 
	C573.718079,1216.711914 567.646301,1216.711914 561.000000,1216.711914 
	C561.000000,1205.358276 561.000000,1193.929077 561.000000,1182.000000 
z"/>
<path fill="#FFFFFF" opacity="1.000000" stroke="none" 
	d="
M856.825684,1183.667480 
	C853.718811,1186.799927 850.863098,1189.648560 847.771057,1192.732910 
	C853.023438,1200.045166 858.249146,1207.320435 863.777710,1215.017334 
	C856.913086,1218.324219 850.260437,1217.155396 843.973877,1216.615845 
	C841.812012,1216.430420 839.888306,1212.419922 838.029175,1210.022461 
	C835.753662,1207.087646 833.254456,1204.218140 831.589600,1200.945190 
	C829.458801,1196.756104 826.430542,1195.443115 822.013611,1195.949707 
	C819.566162,1196.230347 817.059998,1196.000000 813.999878,1196.000000 
	C813.999878,1201.789429 813.881287,1207.390503 814.047119,1212.983154 
	C814.137695,1216.037354 812.996216,1217.144165 809.963928,1217.045898 
	C804.829285,1216.879272 799.685364,1217.000000 794.273804,1217.000000 
	C794.273804,1191.689209 794.273804,1166.621826 794.273804,1141.980713 
	C807.919189,1141.980713 821.592346,1142.065186 835.263672,1141.944702 
	C842.001282,1141.885254 847.588318,1144.574341 852.324219,1148.924438 
	C862.301208,1158.088379 863.985229,1171.236328 856.825684,1183.667480 
M831.812012,1179.711792 
	C840.085938,1177.496826 841.306763,1175.814453 841.000000,1167.050049 
	C840.825317,1162.058472 836.927307,1157.751465 830.861633,1157.133423 
	C825.344299,1156.571167 819.724487,1157.014404 814.289673,1157.014404 
	C814.289673,1165.018311 814.289673,1172.407959 814.289673,1179.981079 
	C820.038025,1179.981079 825.498047,1179.981079 831.812012,1179.711792 
z"/>
<path fill="#FFFFFF" opacity="1.000000" stroke="none" 
	d="
M979.674500,1180.734619 
	C979.208313,1190.763428 975.933228,1199.253296 968.671936,1205.701050 
	C961.646179,1211.939697 953.363647,1215.867798 943.747131,1215.966675 
	C930.703491,1216.100708 917.657349,1216.000000 904.303833,1216.000000 
	C904.303833,1191.773438 904.303833,1166.728638 904.303833,1141.000000 
	C915.330261,1141.000000 926.570679,1140.763916 937.795288,1141.083618 
	C945.204407,1141.294678 952.691162,1142.208618 959.240967,1146.072754 
	C970.515076,1152.724121 978.879761,1161.477051 979.041443,1175.675049 
	C979.059448,1177.249878 979.636108,1178.818481 979.674500,1180.734619 
M923.057556,1157.732422 
	C923.057556,1172.108154 923.057556,1186.484009 923.057556,1201.414795 
	C930.206055,1200.877441 936.961975,1201.285522 943.211548,1199.698975 
	C954.419678,1196.853394 961.192200,1188.605835 959.028564,1175.533203 
	C957.242615,1164.742798 953.582275,1160.158203 942.850586,1158.123169 
	C936.638733,1156.945190 930.125000,1157.359009 923.057556,1157.732422 
z"/>
<path fill="#FFFFFF" opacity="1.000000" stroke="none" 
	d="
M455.931091,1157.000000 
	C445.138000,1157.000000 434.833710,1157.000000 424.265747,1157.000000 
	C424.265747,1161.324707 424.265747,1165.397461 424.265747,1169.761475 
	C435.599426,1170.271973 446.948975,1170.783203 458.653198,1171.310425 
	C458.653198,1175.824341 458.653198,1180.566895 458.653198,1185.713745 
	C447.500610,1185.713745 436.090271,1185.713745 424.341187,1185.713745 
	C424.341187,1190.837769 424.341187,1195.579346 424.341187,1200.724609 
	C437.512329,1200.724609 450.921692,1200.724609 464.664368,1200.724609 
	C464.664368,1206.181152 464.664368,1211.256592 464.664368,1216.668457 
	C444.806519,1216.668457 424.734863,1216.668457 404.331024,1216.668457 
	C404.331024,1191.802979 404.331024,1166.732666 404.331024,1141.330688 
	C423.530212,1141.330688 442.934082,1141.330688 462.641266,1141.330688 
	C463.016479,1146.254517 463.408661,1151.400879 463.835297,1157.000000 
	C461.348389,1157.000000 458.884125,1157.000000 455.931091,1157.000000 
z"/>
<path fill="#FFFFFF" opacity="1.000000" stroke="none" 
	d="
M543.366150,1216.715332 
	C542.832520,1216.392334 542.666504,1216.220337 542.542725,1216.246826 
	C533.607544,1218.146484 530.981628,1212.060059 529.047363,1205.388672 
	C528.069336,1202.015381 526.335815,1200.803345 522.732910,1200.908813 
	C513.423767,1201.181030 504.101257,1201.000000 494.606598,1201.000000 
	C492.844879,1205.090820 491.164520,1209.192139 489.293304,1213.204468 
	C488.795929,1214.270996 487.740570,1215.830444 486.894348,1215.861084 
	C480.640411,1216.086914 474.374542,1215.983276 467.472595,1215.983276 
	C472.379486,1204.852783 476.933502,1194.280762 481.687714,1183.799683 
	C487.646820,1170.662231 493.864319,1157.641113 499.742798,1144.468384 
	C500.909760,1141.853271 502.127777,1140.766724 505.065552,1140.923584 
	C510.204712,1141.197998 515.369080,1141.000000 520.664673,1141.000000 
	C532.026855,1165.662476 543.345764,1190.230957 555.166260,1215.888306 
	C550.619568,1216.314941 547.186523,1216.636963 543.366150,1216.715332 
M502.021088,1182.962646 
	C502.650391,1183.641113 503.262543,1184.888672 503.911713,1184.908081 
	C509.205841,1185.067871 514.506897,1184.998047 520.665161,1184.998047 
	C517.860168,1178.709839 515.390381,1173.009644 512.742859,1167.393188 
	C512.284058,1166.419922 511.073853,1165.800659 510.210693,1165.017822 
	C509.482300,1165.981934 508.522888,1166.848145 508.065491,1167.927124 
	C506.068909,1172.637207 504.218109,1177.409058 502.021088,1182.962646 
z"/>
<path fill="#FFFFFF" opacity="1.000000" stroke="none" 
	d="
M721.694092,1144.260254 
	C728.730042,1159.288940 735.501221,1174.002808 742.280151,1188.713257 
	C746.299011,1197.434448 750.330017,1206.150024 754.444702,1215.061035 
	C747.339783,1219.368896 740.366821,1214.642090 733.695435,1216.154663 
	C731.795166,1211.783813 730.205505,1207.607910 728.140686,1203.682129 
	C727.489441,1202.443970 725.581421,1201.145996 724.221680,1201.116577 
	C714.245667,1200.900635 704.262878,1201.000122 694.237610,1201.000122 
	C692.277039,1205.437988 690.412476,1209.700928 688.500732,1213.942749 
	C688.186707,1214.639526 687.700378,1215.778076 687.234436,1215.808472 
	C680.868042,1216.224976 674.491211,1216.482178 666.861877,1216.837036 
	C670.015991,1209.642944 672.407104,1204.071655 674.892212,1198.542725 
	C682.908813,1180.707153 691.026062,1162.916382 698.932190,1145.032104 
	C700.234924,1142.085327 701.715271,1140.649048 705.105896,1140.924561 
	C709.076660,1141.246948 713.120850,1140.732544 717.076904,1141.134766 
	C718.608215,1141.290405 719.985291,1142.962646 721.694092,1144.260254 
M708.037354,1167.606323 
	C705.903320,1173.225098 703.769226,1178.843872 701.526245,1184.749390 
	C707.750366,1184.749390 713.300964,1184.749390 719.706726,1184.749390 
	C716.586121,1177.350952 713.690247,1170.485352 710.794434,1163.619751 
	C710.381836,1163.737427 709.969299,1163.854980 709.556702,1163.972656 
	C709.213806,1164.975464 708.870911,1165.978149 708.037354,1167.606323 
z"/>
<path fill="#FFFFFF" opacity="1.000000" stroke="none" 
	d="
M1037.031250,1194.825439 
	C1038.055786,1190.603149 1039.771240,1186.793945 1039.866455,1182.944580 
	C1040.207520,1169.147705 1040.000000,1155.337158 1040.000000,1141.266602 
	C1046.333374,1141.266602 1052.411377,1141.266602 1059.973267,1141.266602 
	C1059.981689,1155.097656 1060.410034,1168.956055 1059.857422,1182.775391 
	C1059.460449,1192.703003 1058.016357,1202.883667 1049.024170,1209.281128 
	C1044.562622,1212.455322 1039.388672,1216.011841 1034.237671,1216.554443 
	C1022.285828,1217.812988 1010.197388,1218.141846 999.766113,1209.523926 
	C992.991089,1203.926636 989.656006,1196.666626 989.243896,1188.762085 
	C988.423035,1173.015991 989.000916,1157.196899 989.000916,1141.205444 
	C995.787109,1141.205444 1002.192078,1141.205444 1009.000000,1141.205444 
	C1009.000000,1155.840210 1009.000000,1170.293335 1009.000061,1184.746460 
	C1009.000061,1192.248779 1012.125183,1197.755981 1017.569885,1199.848999 
	C1024.768433,1202.616089 1031.640381,1200.977051 1037.031250,1194.825439 
z"/>
<path fill="#FFFFFF" opacity="1.000000" stroke="none" 
	d="
M311.152588,1159.633057 
	C298.461456,1154.086548 285.320190,1157.365601 279.980194,1167.367798 
	C274.035187,1178.503174 276.527283,1188.091797 283.769745,1194.914062 
	C292.594635,1203.226685 304.697662,1202.998413 314.396698,1196.075317 
	C315.838562,1195.046143 317.227142,1193.942261 318.975708,1192.619141 
	C322.991119,1196.122681 326.917755,1199.548828 331.147491,1203.239380 
	C326.325623,1209.444092 320.604370,1213.619751 313.199524,1215.351685 
	C299.125092,1218.643433 285.336243,1218.483032 273.051758,1209.914185 
	C261.538544,1201.883423 255.743591,1188.710449 257.596527,1173.054077 
	C260.336487,1149.903198 283.980896,1138.222290 302.882965,1140.083008 
	C313.747864,1141.152466 323.586639,1144.989014 331.453033,1154.191772 
	C327.532837,1157.779907 323.588837,1161.389771 319.416626,1165.208496 
	C316.691437,1163.403198 314.059326,1161.659668 311.152588,1159.633057 
z"/>
<path fill="#FFFFFF" opacity="1.000000" stroke="none" 
	d="
M1112.897461,1140.000000 
	C1124.835571,1140.141357 1134.113525,1145.282104 1142.220947,1152.888916 
	C1142.781738,1153.415161 1142.707520,1155.661255 1142.109741,1156.201538 
	C1139.236206,1158.798828 1136.255249,1161.384399 1132.930054,1163.315430 
	C1131.789795,1163.977539 1129.227173,1163.188965 1127.844849,1162.267700 
	C1120.758057,1157.543945 1113.483398,1155.944092 1104.864380,1157.800903 
	C1093.806763,1160.183105 1086.361572,1174.342285 1090.293701,1185.686035 
	C1095.312622,1200.164551 1111.302979,1205.501831 1124.992310,1197.423706 
	C1132.739868,1192.851562 1132.577881,1192.576904 1139.130615,1198.625122 
	C1144.464478,1203.548340 1144.133301,1204.829346 1138.286255,1209.310425 
	C1123.638062,1220.536743 1096.026489,1220.441406 1081.787842,1207.175659 
	C1074.859375,1200.720581 1070.954590,1192.696655 1069.877319,1182.987671 
	C1068.019165,1166.241943 1075.914551,1154.645630 1088.821167,1145.933960 
	C1095.713257,1141.281982 1104.012695,1139.817749 1112.897461,1140.000000 
z"/>
<path fill="#FFFFFF" opacity="1.000000" stroke="none" 
	d="
M1189.000000,1172.003906 
	C1189.000000,1187.136963 1189.000000,1201.770508 1189.000000,1216.701660 
	C1182.742432,1216.701660 1176.673950,1216.701660 1170.219482,1216.701660 
	C1170.219482,1197.086426 1170.219482,1177.358154 1170.219482,1157.238281 
	C1162.450439,1157.238281 1155.042236,1157.238281 1147.319336,1157.238281 
	C1147.319336,1151.785156 1147.319336,1146.715820 1147.319336,1141.319824 
	C1169.204834,1141.319824 1191.263184,1141.319824 1213.661133,1141.319824 
	C1213.661133,1145.838989 1213.661133,1150.574951 1213.661133,1156.272095 
	C1205.772339,1156.272095 1197.668701,1156.272095 1189.000000,1156.272095 
	C1189.000000,1161.974609 1189.000000,1166.739502 1189.000000,1172.003906 
z"/>
<path fill="#FFFFFF" opacity="1.000000" stroke="none" 
	d="
M376.999512,1217.000000 
	C364.197266,1217.000000 351.894928,1217.000000 339.632111,1217.000000 
	C338.029297,1208.704834 338.885284,1146.144531 340.643372,1141.138184 
	C346.580719,1141.138184 352.532715,1141.138184 358.864563,1141.138184 
	C358.864563,1160.998413 358.864563,1180.726807 358.864563,1200.841309 
	C371.303802,1200.841309 383.372620,1200.841309 395.718475,1200.841309 
	C395.718475,1206.292114 395.718475,1211.361572 395.718475,1217.000000 
	C389.688354,1217.000000 383.593903,1217.000000 376.999512,1217.000000 
z"/>
<path fill="#FFFFFF" opacity="1.000000" stroke="none" 
	d="
M776.769043,1216.998291 
	C771.004761,1216.999878 765.718140,1216.999878 760.219299,1216.999878 
	C760.219299,1191.601196 760.219299,1166.556152 760.219299,1141.001709 
	C765.868774,1141.001709 771.480591,1140.818604 777.059570,1141.164795 
	C778.106812,1141.229736 779.864014,1143.402466 779.874329,1144.614502 
	C780.048889,1165.248535 780.041748,1185.884521 779.953491,1206.519653 
	C779.940247,1209.600464 779.382690,1212.689453 778.901550,1215.746948 
	C778.824219,1216.238281 777.821655,1216.583862 776.769043,1216.998291 
z"/>
<path fill="#000000" opacity="1.000000" stroke="none" 
	d="
M758.653381,1021.754883 
	C753.286682,1024.768066 747.713135,1026.932373 743.311707,1030.530518 
	C737.977844,1034.890869 733.498291,1033.805908 728.419922,1030.817993 
	C706.383118,1017.852478 684.314026,1004.941895 662.249512,992.023438 
	C640.605408,979.351074 619.002014,966.607971 597.290100,954.052551 
	C574.615173,940.940308 551.781067,928.103210 529.110535,914.983398 
	C505.175079,901.131592 481.380096,887.037170 457.463806,873.151978 
	C447.176697,867.179626 436.738678,861.467102 426.000000,855.428894 
	C426.000000,853.936829 426.000000,852.134033 426.000000,850.331177 
	C426.000000,738.335632 426.029022,626.340088 425.884766,514.344727 
	C425.879486,510.236389 427.471832,508.465424 430.718140,506.601440 
	C448.562897,496.355255 466.237885,485.814056 484.035004,475.484100 
	C499.604645,466.447021 515.308228,457.640442 530.861755,448.576111 
	C547.252319,439.023956 563.501526,429.229492 579.875610,419.648743 
	C593.194275,411.855804 606.639526,404.279510 619.968750,396.504517 
	C639.410828,385.163849 658.777466,373.693817 678.216919,362.348602 
	C696.402344,351.735321 714.609314,341.157257 732.921509,330.765991 
	C734.241394,330.017029 736.821350,330.343933 738.269653,331.150513 
	C748.102966,336.626770 757.794617,342.357727 767.522522,348.022827 
	C782.384521,356.677734 797.241028,365.342041 812.095703,374.009521 
	C827.647705,383.083862 843.178772,392.194275 858.748596,401.237885 
	C873.616028,409.873474 888.560913,418.376221 903.401428,427.057526 
	C927.139343,440.943573 950.757996,455.034271 974.542603,468.839294 
	C993.724487,479.972717 1013.079163,490.808167 1032.352051,501.784912 
	C1035.982788,503.852753 1039.678101,505.829926 1043.150024,508.139923 
	C1044.121704,508.786499 1044.915527,510.468842 1044.922852,511.681274 
	C1045.033447,530.179871 1045.128174,548.680481 1044.960205,567.178223 
	C1044.820190,582.598572 1044.064209,598.015442 1044.045166,613.434387 
	C1043.947632,692.597778 1043.966797,771.761414 1044.112549,850.924683 
	C1044.118896,854.348572 1042.957642,856.433228 1040.365479,857.936707 
	C1016.725769,871.647217 993.027710,885.257141 969.394043,898.977966 
	C947.706360,911.569153 926.101685,924.303284 904.415894,936.897705 
	C880.786072,950.621094 857.090515,964.231140 833.450439,977.936890 
	C808.840149,992.205078 784.261353,1006.527649 759.675110,1020.837158 
	C759.396484,1020.999390 759.200500,1021.303528 758.653381,1021.754883 
M520.000000,673.514404 
	C520.667114,662.017273 520.417786,650.367554 522.297852,639.072266 
	C523.743713,630.385864 526.575867,621.371460 531.067505,613.864685 
	C541.036865,597.202759 558.066650,591.735779 576.200378,590.171204 
	C590.043213,588.976746 604.018311,589.177246 617.937317,589.039917 
	C634.933105,588.872192 651.932556,589.070190 668.928101,588.891479 
	C670.629272,588.873535 672.885193,587.785828 673.918457,586.448730 
	C683.728943,573.753418 693.368286,560.924927 702.976562,548.074646 
	C707.792603,541.633606 712.442505,535.068420 717.766296,527.734741 
	C713.240723,527.441040 709.841003,527.010010 706.444153,527.031860 
	C662.031372,527.317200 617.619202,527.703064 573.206360,527.976135 
	C561.065430,528.050781 549.317993,530.396606 537.739929,533.713379 
	C517.016418,539.650024 499.689514,550.808228 485.334412,567.016418 
	C472.846558,581.116272 464.948334,597.267517 459.855927,615.267151 
	C455.744232,629.800232 456.585968,644.681274 456.384399,659.266663 
	C455.993134,687.570923 454.164398,715.964905 457.897491,744.259949 
	C459.954254,759.849121 464.240112,774.806458 472.648285,787.808594 
	C487.543762,810.842529 507.998322,827.606201 534.567871,835.947754 
	C545.877380,839.498352 557.433044,842.011536 569.412231,842.026001 
	C577.461304,842.035706 577.921570,842.688110 578.045654,850.659912 
	C578.083313,853.079529 578.730042,855.483704 578.987305,857.906677 
	C580.946045,876.353882 586.345520,893.673950 594.594360,910.342896 
	C603.916809,929.181396 619.020386,941.375854 637.875122,948.802979 
	C660.787598,957.828552 684.514465,956.748962 708.164795,951.384949 
	C725.709656,947.405701 741.887817,939.970215 757.253967,930.864197 
	C764.603210,926.508972 771.280396,921.019714 778.261963,916.044006 
	C777.967102,915.495239 777.672180,914.946472 777.377319,914.397705 
	C776.339783,914.680359 775.241638,914.829468 774.274841,915.268005 
	C769.312256,917.519287 764.475769,920.074829 759.426270,922.103577 
	C740.708984,929.623718 721.417236,933.495239 701.230103,929.967896 
	C681.636658,926.544312 667.484985,915.069641 658.163391,898.122620 
	C647.871216,879.411133 646.995789,858.455383 645.821350,837.484680 
	C723.393188,818.463440 786.203003,776.942871 835.744629,714.924744 
	C847.019531,720.124451 858.178955,725.270874 869.359741,730.427185 
	C869.736816,729.512329 869.976746,729.211975 869.962341,728.924500 
	C869.317322,716.089233 868.679565,703.253357 867.968201,690.421631 
	C867.741455,686.331482 867.363770,682.247498 866.966309,678.169312 
	C865.666321,664.829407 864.306458,651.495300 863.006226,638.155396 
	C862.029480,628.134216 861.109131,618.107605 860.082947,607.227661 
	C821.071167,628.357239 782.893372,649.035095 743.664246,670.282349 
	C755.336487,676.150818 765.565857,681.293884 775.923950,686.501648 
	C774.756348,688.433472 773.862854,690.163330 772.740906,691.729431 
	C761.427612,707.522766 747.715759,720.973572 732.524475,733.006165 
	C712.393433,748.951477 690.107788,760.791321 665.812866,769.097778 
	C647.438354,775.380066 628.550232,778.999573 609.273682,779.827698 
	C593.690979,780.497070 578.018372,780.849854 562.563965,777.069824 
	C542.163025,772.079712 528.941223,760.592285 523.611206,739.549988 
	C520.109436,725.725159 521.900024,711.791199 520.173401,697.984924 
	C519.208984,690.273376 520.000000,682.342285 520.000000,673.514404 
M813.707520,842.999878 
	C817.099548,842.999878 820.491577,842.999878 824.872864,842.999878 
	C823.442017,844.729614 822.797180,845.598022 822.063354,846.383240 
	C807.137024,862.353882 790.103821,875.560059 770.892944,886.055603 
	C750.293457,897.309937 728.871094,904.592285 704.984009,900.972107 
	C692.777283,899.122192 681.574341,894.592957 672.657593,885.932861 
	C667.625122,881.045288 663.659302,875.059326 658.676086,868.905090 
	C659.182617,872.143982 659.400757,874.813538 660.033630,877.380981 
	C664.687744,896.262573 675.370728,910.770935 693.277344,918.473511 
	C709.716614,925.544922 727.249268,925.031006 744.193054,920.199585 
	C774.721497,911.494385 799.945312,893.502869 822.957764,872.333069 
	C831.302307,864.656677 838.397217,855.631958 846.233582,847.385193 
	C847.957703,845.570801 850.248779,843.633667 852.559753,843.177979 
	C857.190857,842.264709 862.013489,842.096924 866.761597,842.046082 
	C879.424622,841.910522 892.098022,842.265930 904.751099,841.885376 
	C910.884094,841.700989 917.041199,840.606873 923.081543,839.396240 
	C937.115173,836.583801 949.812134,830.384216 961.904846,822.968750 
	C975.650391,814.539795 987.086731,803.409668 995.861023,790.029114 
	C1008.797546,770.301208 1014.564453,748.403320 1014.118042,724.638611 
	C1013.608032,697.486206 1014.049744,670.316650 1013.954407,643.155029 
	C1013.937134,638.239624 1013.881775,633.210632 1012.889282,628.432434 
	C1008.937988,609.409790 1002.697388,591.331848 991.095520,575.332825 
	C976.764587,555.570435 957.607727,542.488159 935.100952,534.102234 
	C926.111633,530.752869 916.608887,528.796509 907.406372,525.988159 
	C906.079468,525.583130 904.346863,524.082153 904.142639,522.863708 
	C903.440552,518.674561 903.116394,514.389648 903.037659,510.134033 
	C902.689697,491.321686 898.182373,473.778259 888.261414,457.607422 
	C877.081787,439.385284 862.002136,425.730560 841.856201,418.542603 
	C824.545410,412.366150 806.613892,412.520996 788.637878,415.962646 
	C765.792175,420.336639 744.844177,429.521118 724.880981,441.090759 
	C718.244751,444.936768 712.122925,449.670380 705.765930,453.998230 
	C706.034546,454.473846 706.303223,454.949493 706.571838,455.425110 
	C709.632202,454.177765 712.853455,453.221924 715.726562,451.635468 
	C733.463867,441.841705 752.234253,436.796356 772.655273,437.928314 
	C787.942505,438.775635 801.496460,443.822418 812.562439,454.228912 
	C829.645386,470.293945 837.047974,490.890015 837.855896,513.898560 
	C838.112244,521.198547 837.167603,528.646606 835.890625,535.870972 
	C833.733154,548.076050 830.895813,560.161743 828.297424,572.287598 
	C827.134216,577.715881 825.857300,583.119873 824.412537,589.504456 
	C830.022766,588.930603 834.562134,588.087341 839.105347,588.066345 
	C860.335266,587.967957 881.575073,587.211548 902.568726,591.937561 
	C931.163269,598.374634 949.502991,621.396484 949.074524,650.209229 
	C948.712891,674.533020 949.131775,698.867615 948.908203,723.194702 
	C948.851746,729.339478 948.399536,735.668701 946.842712,741.574097 
	C943.088623,755.814697 934.813660,766.842957 921.042480,772.934021 
	C908.174683,778.625549 894.451294,779.964539 880.549133,779.996460 
	C872.050659,780.015930 863.552063,780.000000 855.053528,780.000000 
	C847.450745,780.000000 839.848022,780.000000 831.680786,780.000000 
	C831.680786,767.322144 831.680786,755.173645 831.680786,742.341309 
	C830.475220,743.265869 829.917419,743.590759 829.487305,744.038330 
	C810.910950,763.374878 791.107727,781.292053 769.036865,796.619751 
	C768.011475,797.331726 767.077271,799.025513 767.090149,800.251709 
	C767.235657,814.101990 767.574707,827.950195 767.866028,842.000000 
	C781.054382,842.000000 793.531250,841.951111 806.007080,842.044922 
	C808.261230,842.061890 810.511047,842.664856 813.707520,842.999878 
M747.378601,628.967834 
	C750.671204,626.304199 753.941040,623.611877 757.260437,620.981995 
	C771.152710,609.975220 787.033508,602.513306 803.128967,595.482361 
	C806.638245,593.949341 809.069214,591.849182 809.984314,588.086670 
	C810.818237,584.657593 811.807678,581.265137 812.595337,577.826050 
	C815.757019,564.021851 819.089905,550.251038 821.910889,536.376648 
	C823.556396,528.283630 821.382324,526.444641 813.169922,528.038513 
	C797.538940,531.072144 782.347900,535.326294 767.586426,541.597839 
	C741.782166,552.561035 719.247742,568.283569 698.702576,586.986816 
	C690.145935,594.776306 682.069397,603.219421 674.638916,612.089417 
	C664.330383,624.395264 654.432983,637.094177 645.080994,650.141907 
	C628.053772,673.897827 614.851074,699.838379 603.771118,726.811401 
	C598.614746,739.364075 594.548523,752.364563 589.988098,765.162048 
	C590.398438,765.679810 590.808777,766.197571 591.219116,766.715332 
	C601.813782,765.810852 612.507751,765.524292 622.977356,763.841614 
	C635.341736,761.854187 647.554993,758.833191 659.724609,755.819397 
	C661.762268,755.314697 664.095825,752.884583 664.854919,750.816467 
	C673.198303,728.086426 684.705017,706.957886 697.211487,686.349487 
	C710.472534,664.497742 727.171875,645.544128 747.378601,628.967834 
M654.105469,511.999573 
	C658.104736,511.999725 662.259827,512.689941 666.064880,511.830414 
	C671.152222,510.681335 676.492920,511.967499 681.439880,508.330780 
	C693.378967,499.553894 705.472229,490.801178 718.341614,483.520691 
	C736.027039,473.515625 754.715210,465.846344 775.831543,466.959564 
	C794.527832,467.945190 809.524902,475.352753 820.038879,491.167023 
	C821.622314,493.548706 823.516846,495.723633 825.267456,497.994171 
	C825.650452,495.742584 825.380981,493.886993 824.989502,492.057434 
	C822.596741,480.874878 818.665771,470.397827 810.504456,462.026154 
	C800.379944,451.640594 787.445679,447.360596 773.482056,446.094330 
	C760.992920,444.961761 748.726318,446.971985 736.758118,450.670929 
	C702.700012,461.196930 676.340210,483.031281 652.241089,508.198914 
	C650.330505,510.194214 650.917664,511.251740 654.105469,511.999573 
z"/>
<path fill="#000000" opacity="1.000000" stroke="none" 
	d="
M831.385071,1179.846436 
	C825.498047,1179.981079 820.038025,1179.981079 814.289673,1179.981079 
	C814.289673,1172.407959 814.289673,1165.018311 814.289673,1157.014404 
	C819.724487,1157.014404 825.344299,1156.571167 830.861633,1157.133423 
	C836.927307,1157.751465 840.825317,1162.058472 841.000000,1167.050049 
	C841.306763,1175.814453 840.085938,1177.496826 831.385071,1179.846436 
z"/>
<path fill="#000000" opacity="1.000000" stroke="none" 
	d="
M923.402344,1157.394531 
	C930.125000,1157.359009 936.638733,1156.945190 942.850586,1158.123169 
	C953.582275,1160.158203 957.242615,1164.742798 959.028564,1175.533203 
	C961.192200,1188.605835 954.419678,1196.853394 943.211548,1199.698975 
	C936.961975,1201.285522 930.206055,1200.877441 923.057556,1201.414795 
	C923.057556,1186.484009 923.057556,1172.108154 923.402344,1157.394531 
z"/>
<path fill="#000000" opacity="1.000000" stroke="none" 
	d="
M502.167725,1182.560547 
	C504.218109,1177.409058 506.068909,1172.637207 508.065491,1167.927124 
	C508.522888,1166.848145 509.482300,1165.981934 510.210693,1165.017822 
	C511.073853,1165.800659 512.284058,1166.419922 512.742859,1167.393188 
	C515.390381,1173.009644 517.860168,1178.709839 520.665161,1184.998047 
	C514.506897,1184.998047 509.205841,1185.067871 503.911713,1184.908081 
	C503.262543,1184.888672 502.650391,1183.641113 502.167725,1182.560547 
z"/>
<path fill="#000000" opacity="1.000000" stroke="none" 
	d="
M708.282715,1167.293701 
	C708.870911,1165.978149 709.213806,1164.975464 709.556702,1163.972656 
	C709.969299,1163.854980 710.381836,1163.737427 710.794434,1163.619751 
	C713.690247,1170.485352 716.586121,1177.350952 719.706726,1184.749390 
	C713.300964,1184.749390 707.750366,1184.749390 701.526245,1184.749390 
	C703.769226,1178.843872 705.903320,1173.225098 708.282715,1167.293701 
z"/>
<path fill="#FFFFFF" opacity="1.000000" stroke="none" 
	d="
M520.000000,674.012268 
	C520.000000,682.342285 519.208984,690.273376 520.173401,697.984924 
	C521.900024,711.791199 520.109436,725.725159 523.611206,739.549988 
	C528.941223,760.592285 542.163025,772.079712 562.563965,777.069824 
	C578.018372,780.849854 593.690979,780.497070 609.273682,779.827698 
	C628.550232,778.999573 647.438354,775.380066 665.812866,769.097778 
	C690.107788,760.791321 712.393433,748.951477 732.524475,733.006165 
	C747.715759,720.973572 761.427612,707.522766 772.740906,691.729431 
	C773.862854,690.163330 774.756348,688.433472 775.923950,686.501648 
	C765.565857,681.293884 755.336487,676.150818 743.664246,670.282349 
	C782.893372,649.035095 821.071167,628.357239 860.082947,607.227661 
	C861.109131,618.107605 862.029480,628.134216 863.006226,638.155396 
	C864.306458,651.495300 865.666321,664.829407 866.966309,678.169312 
	C867.363770,682.247498 867.741455,686.331482 867.968201,690.421631 
	C868.679565,703.253357 869.317322,716.089233 869.962341,728.924500 
	C869.976746,729.211975 869.736816,729.512329 869.359741,730.427185 
	C858.178955,725.270874 847.019531,720.124451 835.744629,714.924744 
	C786.203003,776.942871 723.393188,818.463440 645.821350,837.484680 
	C646.995789,858.455383 647.871216,879.411133 658.163391,898.122620 
	C667.484985,915.069641 681.636658,926.544312 701.230103,929.967896 
	C721.417236,933.495239 740.708984,929.623718 759.426270,922.103577 
	C764.475769,920.074829 769.312256,917.519287 774.274841,915.268005 
	C775.241638,914.829468 776.339783,914.680359 777.377319,914.397705 
	C777.672180,914.946472 777.967102,915.495239 778.261963,916.044006 
	C771.280396,921.019714 764.603210,926.508972 757.253967,930.864197 
	C741.887817,939.970215 725.709656,947.405701 708.164795,951.384949 
	C684.514465,956.748962 660.787598,957.828552 637.875122,948.802979 
	C619.020386,941.375854 603.916809,929.181396 594.594360,910.342896 
	C586.345520,893.673950 580.946045,876.353882 578.987305,857.906677 
	C578.730042,855.483704 578.083313,853.079529 578.045654,850.659912 
	C577.921570,842.688110 577.461304,842.035706 569.412231,842.026001 
	C557.433044,842.011536 545.877380,839.498352 534.567871,835.947754 
	C507.998322,827.606201 487.543762,810.842529 472.648285,787.808594 
	C464.240112,774.806458 459.954254,759.849121 457.897491,744.259949 
	C454.164398,715.964905 455.993134,687.570923 456.384399,659.266663 
	C456.585968,644.681274 455.744232,629.800232 459.855927,615.267151 
	C464.948334,597.267517 472.846558,581.116272 485.334412,567.016418 
	C499.689514,550.808228 517.016418,539.650024 537.739929,533.713379 
	C549.317993,530.396606 561.065430,528.050781 573.206360,527.976135 
	C617.619202,527.703064 662.031372,527.317200 706.444153,527.031860 
	C709.841003,527.010010 713.240723,527.441040 717.766296,527.734741 
	C712.442505,535.068420 707.792603,541.633606 702.976562,548.074646 
	C693.368286,560.924927 683.728943,573.753418 673.918457,586.448730 
	C672.885193,587.785828 670.629272,588.873535 668.928101,588.891479 
	C651.932556,589.070190 634.933105,588.872192 617.937317,589.039917 
	C604.018311,589.177246 590.043213,588.976746 576.200378,590.171204 
	C558.066650,591.735779 541.036865,597.202759 531.067505,613.864685 
	C526.575867,621.371460 523.743713,630.385864 522.297852,639.072266 
	C520.417786,650.367554 520.667114,662.017273 520.000000,674.012268 
z"/>
<path fill="#FFFFFF" opacity="1.000000" stroke="none" 
	d="
M813.235168,842.998535 
	C810.511047,842.664856 808.261230,842.061890 806.007080,842.044922 
	C793.531250,841.951111 781.054382,842.000000 767.866028,842.000000 
	C767.574707,827.950195 767.235657,814.101990 767.090149,800.251709 
	C767.077271,799.025513 768.011475,797.331726 769.036865,796.619751 
	C791.107727,781.292053 810.910950,763.374878 829.487305,744.038330 
	C829.917419,743.590759 830.475220,743.265869 831.680786,742.341309 
	C831.680786,755.173645 831.680786,767.322144 831.680786,780.000000 
	C839.848022,780.000000 847.450745,780.000000 855.053528,780.000000 
	C863.552063,780.000000 872.050659,780.015930 880.549133,779.996460 
	C894.451294,779.964539 908.174683,778.625549 921.042480,772.934021 
	C934.813660,766.842957 943.088623,755.814697 946.842712,741.574097 
	C948.399536,735.668701 948.851746,729.339478 948.908203,723.194702 
	C949.131775,698.867615 948.712891,674.533020 949.074524,650.209229 
	C949.502991,621.396484 931.163269,598.374634 902.568726,591.937561 
	C881.575073,587.211548 860.335266,587.967957 839.105347,588.066345 
	C834.562134,588.087341 830.022766,588.930603 824.412537,589.504456 
	C825.857300,583.119873 827.134216,577.715881 828.297424,572.287598 
	C830.895813,560.161743 833.733154,548.076050 835.890625,535.870972 
	C837.167603,528.646606 838.112244,521.198547 837.855896,513.898560 
	C837.047974,490.890015 829.645386,470.293945 812.562439,454.228912 
	C801.496460,443.822418 787.942505,438.775635 772.655273,437.928314 
	C752.234253,436.796356 733.463867,441.841705 715.726562,451.635468 
	C712.853455,453.221924 709.632202,454.177765 706.571838,455.425110 
	C706.303223,454.949493 706.034546,454.473846 705.765930,453.998230 
	C712.122925,449.670380 718.244751,444.936768 724.880981,441.090759 
	C744.844177,429.521118 765.792175,420.336639 788.637878,415.962646 
	C806.613892,412.520996 824.545410,412.366150 841.856201,418.542603 
	C862.002136,425.730560 877.081787,439.385284 888.261414,457.607422 
	C898.182373,473.778259 902.689697,491.321686 903.037659,510.134033 
	C903.116394,514.389648 903.440552,518.674561 904.142639,522.863708 
	C904.346863,524.082153 906.079468,525.583130 907.406372,525.988159 
	C916.608887,528.796509 926.111633,530.752869 935.100952,534.102234 
	C957.607727,542.488159 976.764587,555.570435 991.095520,575.332825 
	C1002.697388,591.331848 1008.937988,609.409790 1012.889282,628.432434 
	C1013.881775,633.210632 1013.937134,638.239624 1013.954407,643.155029 
	C1014.049744,670.316650 1013.608032,697.486206 1014.118042,724.638611 
	C1014.564453,748.403320 1008.797546,770.301208 995.861023,790.029114 
	C987.086731,803.409668 975.650391,814.539795 961.904846,822.968750 
	C949.812134,830.384216 937.115173,836.583801 923.081543,839.396240 
	C917.041199,840.606873 910.884094,841.700989 904.751099,841.885376 
	C892.098022,842.265930 879.424622,841.910522 866.761597,842.046082 
	C862.013489,842.096924 857.190857,842.264709 852.559753,843.177979 
	C850.248779,843.633667 847.957703,845.570801 846.233582,847.385193 
	C838.397217,855.631958 831.302307,864.656677 822.957764,872.333069 
	C799.945312,893.502869 774.721497,911.494385 744.193054,920.199585 
	C727.249268,925.031006 709.716614,925.544922 693.277344,918.473511 
	C675.370728,910.770935 664.687744,896.262573 660.033630,877.380981 
	C659.400757,874.813538 659.182617,872.143982 658.676086,868.905090 
	C663.659302,875.059326 667.625122,881.045288 672.657593,885.932861 
	C681.574341,894.592957 692.777283,899.122192 704.984009,900.972107 
	C728.871094,904.592285 750.293457,897.309937 770.892944,886.055603 
	C790.103821,875.560059 807.137024,862.353882 822.063354,846.383240 
	C822.797180,845.598022 823.442017,844.729614 824.872864,842.999878 
	C820.491577,842.999878 817.099548,842.999878 813.235168,842.998535 
z"/>
<path fill="#FFFFFF" opacity="1.000000" stroke="none" 
	d="
M747.018738,628.998413 
	C727.171875,645.544128 710.472534,664.497742 697.211487,686.349487 
	C684.705017,706.957886 673.198303,728.086426 664.854919,750.816467 
	C664.095825,752.884583 661.762268,755.314697 659.724609,755.819397 
	C647.554993,758.833191 635.341736,761.854187 622.977356,763.841614 
	C612.507751,765.524292 601.813782,765.810852 591.219116,766.715332 
	C590.808777,766.197571 590.398438,765.679810 589.988098,765.162048 
	C594.548523,752.364563 598.614746,739.364075 603.771118,726.811401 
	C614.851074,699.838379 628.053772,673.897827 645.080994,650.141907 
	C654.432983,637.094177 664.330383,624.395264 674.638916,612.089417 
	C682.069397,603.219421 690.145935,594.776306 698.702576,586.986816 
	C719.247742,568.283569 741.782166,552.561035 767.586426,541.597839 
	C782.347900,535.326294 797.538940,531.072144 813.169922,528.038513 
	C821.382324,526.444641 823.556396,528.283630 821.910889,536.376648 
	C819.089905,550.251038 815.757019,564.021851 812.595337,577.826050 
	C811.807678,581.265137 810.818237,584.657593 809.984314,588.086670 
	C809.069214,591.849182 806.638245,593.949341 803.128967,595.482361 
	C787.033508,602.513306 771.152710,609.975220 757.260437,620.981995 
	C753.941040,623.611877 750.671204,626.304199 747.018738,628.998413 
z"/>
<path fill="#FFFFFF" opacity="1.000000" stroke="none" 
	d="
M653.672485,511.996094 
	C650.917664,511.251740 650.330505,510.194214 652.241089,508.198914 
	C676.340210,483.031281 702.700012,461.196930 736.758118,450.670929 
	C748.726318,446.971985 760.992920,444.961761 773.482056,446.094330 
	C787.445679,447.360596 800.379944,451.640594 810.504456,462.026154 
	C818.665771,470.397827 822.596741,480.874878 824.989502,492.057434 
	C825.380981,493.886993 825.650452,495.742584 825.267456,497.994171 
	C823.516846,495.723633 821.622314,493.548706 820.038879,491.167023 
	C809.524902,475.352753 794.527832,467.945190 775.831543,466.959564 
	C754.715210,465.846344 736.027039,473.515625 718.341614,483.520691 
	C705.472229,490.801178 693.378967,499.553894 681.439880,508.330780 
	C676.492920,511.967499 671.152222,510.681335 666.064880,511.830414 
	C662.259827,512.689941 658.104736,511.999725 653.672485,511.996094 
z"/>
</svg>