<?xml version="1.0" encoding="UTF-8" standalone="no"?>
<!DOCTYPE svg PUBLIC "-//W3C//DTD SVG 1.1//EN" "http://www.w3.org/Graphics/SVG/1.1/DTD/svg11.dtd">
<svg width="100%" height="100%" viewBox="0 0 1469 1472" version="1.1" xmlns="http://www.w3.org/2000/svg" xmlns:xlink="http://www.w3.org/1999/xlink" xml:space="preserve" xmlns:serif="http://www.serif.com/" style="fill-rule:evenodd;clip-rule:evenodd;stroke-linejoin:round;stroke-miterlimit:2;">
    <path d="M1109,800C1109,828.328 1108.864,856.158 1109.131,883.984C1109.176,888.767 1107.595,891.548 1103.653,893.807C1082.319,906.034 1061.032,918.343 1039.77,930.695C1015.727,944.663 991.754,958.753 967.7,972.701C949.765,983.101 931.699,993.276 913.782,1003.707C897.391,1013.249 881.172,1023.087 864.782,1032.632C849.371,1041.606 833.784,1050.28 818.367,1059.244C796.406,1072.013 774.533,1084.933 752.613,1097.773C747.897,1100.536 743.303,1103.605 738.32,1105.764C736.48,1106.561 733.353,1105.737 731.374,1104.64C720.129,1098.404 709.055,1091.858 697.919,1085.425C685.537,1078.272 673.137,1071.151 660.77,1063.974C640.609,1052.274 620.468,1040.541 600.32,1028.819C587.259,1021.219 574.217,1013.587 561.138,1006.019C543.333,995.717 525.495,985.475 507.685,975.182C493.77,967.14 479.878,959.06 465.975,950.998C452.904,943.419 439.827,935.852 426.763,928.263C412.864,920.188 398.978,912.094 385.086,904.007C377.585,899.641 370.059,895.316 362.62,890.846C361.821,890.366 361.305,889.094 361.063,888.092C360.797,886.989 361,885.773 361,884.607C361,749.298 361.024,613.989 360.889,478.68C360.884,474.459 362.428,472.473 365.853,470.508C383.699,460.271 401.372,449.732 419.159,439.392C434.863,430.263 450.67,421.312 466.373,412.182C485.685,400.954 504.895,389.548 524.229,378.357C540.36,369.019 556.664,359.979 572.785,350.625C587.664,341.991 602.36,333.041 617.215,324.365C630.396,316.666 643.731,309.228 656.918,301.539C680.387,287.855 703.796,274.07 727.228,260.323C731.827,257.625 735.986,256.28 741.402,259.609C756.041,268.609 771.103,276.922 785.999,285.505C803.266,295.454 820.576,305.329 837.79,315.369C852.651,324.035 867.361,332.96 882.216,341.636C895.398,349.335 908.729,356.778 921.919,364.462C941.365,375.789 960.71,387.29 980.163,398.605C995.722,407.654 1011.426,416.453 1026.978,425.514C1048.089,437.814 1069.108,450.273 1090.185,462.632C1096.291,466.213 1102.46,469.683 1109,473.434L1109,800M758.966,1021.541C759.201,1021.304 759.396,1020.999 759.675,1020.837C784.261,1006.528 808.84,992.205 833.45,977.937C857.091,964.231 880.786,950.621 904.416,936.898C926.102,924.303 947.706,911.569 969.394,898.978C993.028,885.257 1016.726,871.647 1040.365,857.937C1042.958,856.433 1044.119,854.349 1044.113,850.925C1043.967,771.761 1043.948,692.598 1044.045,613.434C1044.064,598.015 1044.82,582.599 1044.96,567.178C1045.128,548.68 1045.033,530.18 1044.923,511.681C1044.916,510.469 1044.122,508.786 1043.15,508.14C1039.678,505.83 1035.983,503.853 1032.352,501.785C1013.079,490.808 993.724,479.973 974.543,468.839C950.758,455.034 927.139,440.944 903.401,427.058C888.561,418.376 873.616,409.873 858.749,401.238C843.179,392.194 827.648,383.084 812.096,374.01C797.241,365.342 782.385,356.678 767.523,348.023C757.795,342.358 748.103,336.627 738.27,331.151C736.821,330.344 734.241,330.017 732.922,330.766C714.609,341.157 696.402,351.735 678.217,362.349C658.777,373.694 639.411,385.164 619.969,396.505C606.64,404.28 593.194,411.856 579.876,419.649C563.502,429.229 547.252,439.024 530.862,448.576C515.308,457.64 499.605,466.447 484.035,475.484C466.238,485.814 448.563,496.355 430.718,506.601C427.472,508.465 425.879,510.236 425.885,514.345C426.029,626.34 426,738.336 426,850.331L426,855.429C436.739,861.467 447.177,867.18 457.464,873.152C481.38,887.037 505.175,901.132 529.111,914.983C551.781,928.103 574.615,940.94 597.29,954.053C619.002,966.608 640.605,979.351 662.25,992.023C684.314,1004.942 706.383,1017.852 728.42,1030.818C733.498,1033.806 737.978,1034.891 743.312,1030.531C747.713,1026.932 753.287,1024.768 758.966,1021.541Z" style="fill:white;fill-rule:nonzero;"/>
    <path d="M520,674.012C520,682.342 519.209,690.273 520.173,697.985C521.9,711.791 520.109,725.725 523.611,739.55C528.941,760.592 542.163,772.08 562.564,777.07C578.018,780.85 593.691,780.497 609.274,779.828C628.55,779 647.438,775.38 665.813,769.098C690.108,760.791 712.393,748.951 732.524,733.006C747.716,720.974 761.428,707.523 772.741,691.729C773.863,690.163 774.756,688.433 775.924,686.502C765.566,681.294 755.336,676.151 743.664,670.282C782.893,649.035 821.071,628.357 860.083,607.228C861.109,618.108 862.029,628.134 863.006,638.155C864.306,651.495 865.666,664.829 866.966,678.169C867.364,682.247 867.741,686.331 867.968,690.422C868.68,703.253 869.317,716.089 869.962,728.924C869.977,729.212 869.737,729.512 869.36,730.427C858.179,725.271 847.02,720.124 835.745,714.925C786.203,776.943 723.393,818.463 645.821,837.485C646.996,858.455 647.871,879.411 658.163,898.123C667.485,915.07 681.637,926.544 701.23,929.968C721.417,933.495 740.709,929.624 759.426,922.104C764.476,920.075 769.312,917.519 774.275,915.268C775.242,914.829 776.34,914.68 777.377,914.398C777.672,914.946 777.967,915.495 778.262,916.044C771.28,921.02 764.603,926.509 757.254,930.864C741.888,939.97 725.71,947.406 708.165,951.385C684.514,956.749 660.788,957.829 637.875,948.803C619.02,941.376 603.917,929.181 594.594,910.343C586.346,893.674 580.946,876.354 578.987,857.907C578.73,855.484 578.083,853.08 578.046,850.66C577.922,842.688 577.461,842.036 569.412,842.026C557.433,842.012 545.877,839.498 534.568,835.948C507.998,827.606 487.544,810.843 472.648,787.809C464.24,774.806 459.954,759.849 457.897,744.26C454.164,715.965 455.993,687.571 456.384,659.267C456.586,644.681 455.744,629.8 459.856,615.267C464.948,597.268 472.847,581.116 485.334,567.016C499.69,550.808 517.016,539.65 537.74,533.713C549.318,530.397 561.065,528.051 573.206,527.976C617.619,527.703 662.031,527.317 706.444,527.032C709.841,527.01 713.241,527.441 717.766,527.735C712.443,535.068 707.793,541.634 702.977,548.075C693.368,560.925 683.729,573.753 673.918,586.449C672.885,587.786 670.629,588.874 668.928,588.891C651.933,589.07 634.933,588.872 617.937,589.04C604.018,589.177 590.043,588.977 576.2,590.171C558.067,591.736 541.037,597.203 531.068,613.865C526.576,621.371 523.744,630.386 522.298,639.072C520.418,650.368 520.667,662.017 520,674.012Z" style="fill:white;fill-rule:nonzero;"/>
    <path d="M813.235,842.999C810.511,842.665 808.261,842.062 806.007,842.045C793.531,841.951 781.054,842 767.866,842C767.575,827.95 767.236,814.102 767.09,800.252C767.077,799.026 768.011,797.332 769.037,796.62C791.108,781.292 810.911,763.375 829.487,744.038C829.917,743.591 830.475,743.266 831.681,742.341L831.681,780L855.054,780C863.552,780 872.051,780.016 880.549,779.996C894.451,779.965 908.175,778.626 921.042,772.934C934.814,766.843 943.089,755.815 946.843,741.574C948.4,735.669 948.852,729.339 948.908,723.195C949.132,698.868 948.713,674.533 949.075,650.209C949.503,621.396 931.163,598.375 902.569,591.938C881.575,587.212 860.335,587.968 839.105,588.066C834.562,588.087 830.023,588.931 824.413,589.504C825.857,583.12 827.134,577.716 828.297,572.288C830.896,560.162 833.733,548.076 835.891,535.871C837.168,528.647 838.112,521.199 837.856,513.899C837.048,490.89 829.645,470.294 812.562,454.229C801.496,443.822 787.943,438.776 772.655,437.928C752.234,436.796 733.464,441.842 715.727,451.635C712.853,453.222 709.632,454.178 706.572,455.425C706.303,454.949 706.035,454.474 705.766,453.998C712.123,449.67 718.245,444.937 724.881,441.091C744.844,429.521 765.792,420.337 788.638,415.963C806.614,412.521 824.545,412.366 841.856,418.543C862.002,425.731 877.082,439.385 888.261,457.607C898.182,473.778 902.69,491.322 903.038,510.134C903.116,514.39 903.441,518.675 904.143,522.864C904.347,524.082 906.079,525.583 907.406,525.988C916.609,528.797 926.112,530.753 935.101,534.102C957.608,542.488 976.765,555.57 991.096,575.333C1002.697,591.332 1008.938,609.41 1012.889,628.432C1013.882,633.211 1013.937,638.24 1013.954,643.155C1014.05,670.317 1013.608,697.486 1014.118,724.639C1014.564,748.403 1008.798,770.301 995.861,790.029C987.087,803.41 975.65,814.54 961.905,822.969C949.812,830.384 937.115,836.584 923.082,839.396C917.041,840.607 910.884,841.701 904.751,841.885C892.098,842.266 879.425,841.911 866.762,842.046C862.013,842.097 857.191,842.265 852.56,843.178C850.249,843.634 847.958,845.571 846.234,847.385C838.397,855.632 831.302,864.657 822.958,872.333C799.945,893.503 774.721,911.494 744.193,920.2C727.249,925.031 709.717,925.545 693.277,918.474C675.371,910.771 664.688,896.263 660.034,877.381C659.401,874.814 659.183,872.144 658.676,868.905C663.659,875.059 667.625,881.045 672.658,885.933C681.574,894.593 692.777,899.122 704.984,900.972C728.871,904.592 750.293,897.31 770.893,886.056C790.104,875.56 807.137,862.354 822.063,846.383C822.797,845.598 823.442,844.73 824.873,843C820.492,843 817.1,843 813.235,842.999Z" style="fill:white;fill-rule:nonzero;"/>
    <path d="M747.019,628.998C727.172,645.544 710.473,664.498 697.211,686.349C684.705,706.958 673.198,728.086 664.855,750.816C664.096,752.885 661.762,755.315 659.725,755.819C647.555,758.833 635.342,761.854 622.977,763.842C612.508,765.524 601.814,765.811 591.219,766.715C590.809,766.198 590.398,765.68 589.988,765.162C594.549,752.365 598.615,739.364 603.771,726.811C614.851,699.838 628.054,673.898 645.081,650.142C654.433,637.094 664.33,624.395 674.639,612.089C682.069,603.219 690.146,594.776 698.703,586.987C719.248,568.284 741.782,552.561 767.586,541.598C782.348,535.326 797.539,531.072 813.17,528.039C821.382,526.445 823.556,528.284 821.911,536.377C819.09,550.251 815.757,564.022 812.595,577.826C811.808,581.265 810.818,584.658 809.984,588.087C809.069,591.849 806.638,593.949 803.129,595.482C787.034,602.513 771.153,609.975 757.26,620.982C753.941,623.612 750.671,626.304 747.019,628.998Z" style="fill:white;fill-rule:nonzero;"/>
    <path d="M653.672,511.996C650.918,511.252 650.331,510.194 652.241,508.199C676.34,483.031 702.7,461.197 736.758,450.671C748.726,446.972 760.993,444.962 773.482,446.094C787.446,447.361 800.38,451.641 810.504,462.026C818.666,470.398 822.597,480.875 824.99,492.057C825.381,493.887 825.65,495.743 825.267,497.994C823.517,495.724 821.622,493.549 820.039,491.167C809.525,475.353 794.528,467.945 775.832,466.96C754.715,465.846 736.027,473.516 718.342,483.521C705.472,490.801 693.379,499.554 681.44,508.331C676.493,511.967 671.152,510.681 666.065,511.83C662.26,512.69 658.105,512 653.672,511.996Z" style="fill:white;fill-rule:nonzero;"/>
</svg>
